<?xml version="1.0" encoding="iso-8859-1"?>
<!-- Generator: Adobe Illustrator 19.0.0, SVG Export Plug-In . SVG Version: 6.00 Build 0)  -->
<svg version="1.1" id="Layer_1" xmlns="http://www.w3.org/2000/svg" xmlns:xlink="http://www.w3.org/1999/xlink" x="0px" y="0px"
	 viewBox="0 0 512 512" style="enable-background:new 0 0 512 512;" xml:space="preserve">
<rect x="203.729" y="195.865" style="fill:#FFCC85;" width="104.552" height="305.935"/>
<path style="fill:#FFA22B;" d="M301.752,111.57c0,25.267-20.483,45.752-45.752,45.752s-45.752-20.483-45.752-45.752
	S256,10.199,256,10.199S301.752,86.302,301.752,111.57z"/>
<g>
	<path style="fill:#570029;" d="M308.274,185.669h-42.075v-19.098c25.996-4.81,45.751-27.636,45.751-55.001
		c0-26.743-39.326-93.512-47.209-106.626C262.897,1.877,259.58,0,256,0c-3.58,0-6.897,1.877-8.741,4.945
		c-7.883,13.113-47.209,79.882-47.209,106.626c0,27.366,19.756,50.191,45.751,55.001v19.098h-42.075
		c-5.633,0-10.199,4.567-10.199,10.199v305.932c0,5.632,4.566,10.199,10.199,10.199h104.548c5.633,0,10.199-4.567,10.199-10.199
		V195.869C318.473,190.237,313.907,185.669,308.274,185.669z M220.449,111.57c0-13.748,19.247-52.259,35.551-81.098
		c16.305,28.838,35.551,67.349,35.551,81.098c0,16.059-10.706,29.658-25.352,34.053v-37.315c0-5.632-4.566-10.199-10.199-10.199
		c-5.633,0-10.199,4.567-10.199,10.199v37.315C231.154,141.228,220.449,127.629,220.449,111.57z M298.075,491.602h-84.15V206.068
		h84.15V491.602z"/>
	<path style="fill:#570029;" d="M277.099,479.297c5.633,0,10.199-4.567,10.199-10.199v-53.802c0-5.632-4.566-10.199-10.199-10.199
		s-10.199,4.567-10.199,10.199v53.802C266.9,474.73,271.466,479.297,277.099,479.297z"/>
	<path style="fill:#570029;" d="M277.099,392.669c5.633,0,10.199-4.567,10.199-10.199v-7.384c0-5.632-4.566-10.199-10.199-10.199
		s-10.199,4.567-10.199,10.199v7.384C266.9,388.102,271.466,392.669,277.099,392.669z"/>
</g>
<g>
</g>
<g>
</g>
<g>
</g>
<g>
</g>
<g>
</g>
<g>
</g>
<g>
</g>
<g>
</g>
<g>
</g>
<g>
</g>
<g>
</g>
<g>
</g>
<g>
</g>
<g>
</g>
<g>
</g>
</svg>
