<?xml version="1.0" encoding="iso-8859-1"?>
<!-- Generator: Adobe Illustrator 19.0.0, SVG Export Plug-In . SVG Version: 6.00 Build 0)  -->
<svg version="1.1" id="Layer_1" xmlns="http://www.w3.org/2000/svg" xmlns:xlink="http://www.w3.org/1999/xlink" x="0px" y="0px"
	 viewBox="0 0 502.596 502.596" style="enable-background:new 0 0 502.596 502.596;" xml:space="preserve">
<path style="fill:#FFD15C;" d="M303.02,109.714h-102.4c-11.494,0-20.898,9.404-20.898,20.898v54.335h144.196v-54.335
	C323.918,119.118,314.514,109.714,303.02,109.714z"/>
<path style="fill:#FF7058;" d="M355.265,170.318L355.265,170.318c-13.584-13.584-31.347-20.898-50.155-20.898H199.576
	c-18.808,0-36.571,7.314-50.155,20.898l-1.045,1.045c-13.584,13.584-20.898,31.347-20.898,50.155v260.18
	c0,11.494,9.404,20.898,20.898,20.898H354.22c11.494,0,20.898-9.404,20.898-20.898V220.473
	C375.118,201.665,367.804,183.902,355.265,170.318z"/>
<polygon style="fill:#40596B;" points="248.686,0 228.833,109.714 274.808,109.714 254.955,0 "/>
<path style="fill:#FFFFFF;" d="M324.963,408.555H178.678c0,0-26.122-121.208,0-147.331c26.122-26.122,121.208-26.122,147.331,0
	C351.086,287.347,324.963,408.555,324.963,408.555z"/>
<g>
	<ellipse style="fill:#4CDBC4;" cx="251.82" cy="338.547" rx="41.796" ry="35.527"/>
	<path style="fill:#4CDBC4;" d="M275.853,285.257h-2.09c-4.18,0-8.359,2.09-12.539,5.224c-1.045-4.18-3.135-8.359-6.269-11.494
		l-2.09-2.09l-2.09,2.09c-3.135,3.135-5.224,7.314-6.269,11.494c-3.135-3.135-7.314-4.18-12.539-5.224h-2.09v2.09
		c-1.045,12.539,8.359,24.033,20.898,25.078h2.09l0,0h2.09c12.539-1.045,21.943-12.539,20.898-25.078V285.257z"/>
</g>
<g>
</g>
<g>
</g>
<g>
</g>
<g>
</g>
<g>
</g>
<g>
</g>
<g>
</g>
<g>
</g>
<g>
</g>
<g>
</g>
<g>
</g>
<g>
</g>
<g>
</g>
<g>
</g>
<g>
</g>
</svg>
