<?xml version="1.0" encoding="iso-8859-1"?>
<!-- Generator: Adobe Illustrator 19.0.0, SVG Export Plug-In . SVG Version: 6.00 Build 0)  -->
<svg version="1.1" id="Layer_1" xmlns="http://www.w3.org/2000/svg" xmlns:xlink="http://www.w3.org/1999/xlink" x="0px" y="0px"
	 viewBox="0 0 501.551 501.551" style="enable-background:new 0 0 501.551 501.551;" xml:space="preserve">
<path style="fill:#FF7058;" d="M480.653,416.914H20.898C9.404,416.914,0,426.318,0,437.812v63.739h501.551v-63.739
	C501.551,426.318,492.147,416.914,480.653,416.914z"/>
<path style="fill:#FFFFFF;" d="M464.98,286.302v24.033c-6.269,0-12.539,3.135-16.718,7.314
	c-9.404,9.404-21.943,14.629-35.527,14.629c-13.584,0-26.122-5.224-35.527-14.629c-10.449-10.449-27.167-10.449-36.571,0
	c-9.404,9.404-21.943,14.629-35.527,14.629c-13.584,0-26.122-5.224-35.527-14.629c-10.449-10.449-27.167-10.449-36.571,0
	c-9.404,9.404-21.943,14.629-35.527,14.629s-26.122-5.224-35.527-14.629c-10.449-10.449-27.167-10.449-36.571,0
	c-9.404,9.404-21.943,14.629-35.527,14.629s-26.122-5.224-35.527-14.629c-5.224-5.224-11.494-7.314-17.763-7.314v-24.033
	c12.539,0,25.078,5.224,34.482,14.629c9.404,10.449,27.167,9.404,36.571,0c19.853-19.853,51.2-19.853,71.053,0
	c9.404,10.449,27.167,9.404,36.571,0c19.853-19.853,51.2-19.853,71.053,0c9.404,10.449,27.167,9.404,36.571,0
	c19.853-19.853,51.2-19.853,71.053,0c10.449,10.449,27.167,9.404,36.571,0C439.902,291.527,452.441,286.302,464.98,286.302z"/>
<path style="fill:#CDD6E0;" d="M412.735,332.278c-13.584,0-26.122-5.224-35.527-14.629c-10.449-10.449-27.167-10.449-36.571,0
	c-9.404,9.404-21.943,14.629-35.527,14.629c-13.584,0-26.122-5.224-35.527-14.629c-10.449-10.449-27.167-10.449-36.571,0
	c-9.404,9.404-21.943,14.629-35.527,14.629s-26.122-5.224-35.527-14.629c-10.449-10.449-27.167-10.449-36.571,0
	c-9.404,9.404-21.943,14.629-35.527,14.629s-26.122-5.224-35.527-14.629c-5.224-5.224-11.494-7.314-17.763-7.314v106.58H464.98
	v-106.58c-6.269,0-12.539,3.135-16.718,7.314C437.812,327.053,425.273,332.278,412.735,332.278z"/>
<path style="fill:#F2F2F2;" d="M444.082,185.992H57.469c-11.494,0-20.898,9.404-20.898,20.898v79.412
	c12.539,0,25.078,5.224,34.482,14.629c9.404,10.449,27.167,9.404,36.571,0c19.853-19.853,51.2-19.853,71.053,0
	c9.404,10.449,27.167,9.404,36.571,0c19.853-19.853,51.2-19.853,71.053,0c9.404,10.449,27.167,9.404,36.571,0
	c19.853-19.853,51.2-19.853,71.053,0c10.449,10.449,27.167,9.404,36.571,0c9.404-9.404,21.943-14.629,34.482-14.629V206.89
	C464.98,195.396,455.575,185.992,444.082,185.992z"/>
<path style="fill:#FFFFFF;" d="M393.927,300.931c-19.853-19.853-51.2-19.853-71.053,0c-10.449,9.404-27.167,10.449-36.571,0
	c-19.853-19.853-51.2-19.853-71.053,0c-10.449,9.404-27.167,10.449-36.571,0c-19.853-19.853-51.2-19.853-71.053,0
	c-9.404,9.404-27.167,10.449-36.571,0c-9.404-9.404-21.943-14.629-34.482-14.629v24.033c6.269,0,12.539,3.135,17.763,7.314
	c9.404,9.404,21.943,14.629,35.527,14.629s26.122-5.224,35.527-14.629c10.449-10.449,27.167-10.449,36.571,0
	c9.404,9.404,21.943,14.629,35.527,14.629c13.584,0,26.122-5.224,35.527-14.629c10.449-10.449,27.167-10.449,36.571,0
	c9.404,9.404,21.943,14.629,35.527,14.629c13.584,0,26.122-5.224,35.527-14.629c10.449-10.449,27.167-10.449,36.571,0
	c9.404,9.404,21.943,14.629,35.527,14.629s26.122-5.224,35.527-14.629c5.224-5.224,10.449-7.314,16.718-7.314v-24.033
	c-12.539,0-25.078,5.224-34.482,14.629C421.094,310.335,403.331,310.335,393.927,300.931z"/>
<g>
	<circle style="fill:#F2F2F2;" cx="147.331" cy="348.996" r="15.673"/>
	<circle style="fill:#F2F2F2;" cx="247.641" cy="348.996" r="15.673"/>
	<circle style="fill:#F2F2F2;" cx="354.22" cy="348.996" r="15.673"/>
</g>
<g>
	<circle style="fill:#CDD6E0;" cx="200.62" cy="253.91" r="15.673"/>
	<circle style="fill:#CDD6E0;" cx="300.931" cy="253.91" r="15.673"/>
</g>
<path style="fill:#84DBFF;" d="M293.616,119.118v66.873h-85.682v-66.873c0-11.494,9.404-20.898,20.898-20.898h43.886
	C284.212,98.22,293.616,107.624,293.616,119.118z"/>
<rect x="244.506" y="73.143" style="fill:#40596B;" width="12.539" height="25.078"/>
<path style="fill:#F8B64C;" d="M277.943,56.424c0,14.629-12.539,27.167-27.167,27.167s-27.167-12.539-27.167-27.167
	S250.776,0,250.776,0S277.943,41.796,277.943,56.424z"/>
<path style="fill:#FFD15C;" d="M270.629,61.649c0,11.494-9.404,19.853-19.853,19.853c-11.494,0-19.853-9.404-19.853-19.853
	c0-11.494,19.853-41.796,19.853-41.796S270.629,50.155,270.629,61.649z"/>
<g>
</g>
<g>
</g>
<g>
</g>
<g>
</g>
<g>
</g>
<g>
</g>
<g>
</g>
<g>
</g>
<g>
</g>
<g>
</g>
<g>
</g>
<g>
</g>
<g>
</g>
<g>
</g>
<g>
</g>
</svg>
