<?xml version="1.0" encoding="iso-8859-1"?>
<!-- Generator: Adobe Illustrator 19.0.0, SVG Export Plug-In . SVG Version: 6.00 Build 0)  -->
<svg version="1.1" id="Layer_1" xmlns="http://www.w3.org/2000/svg" xmlns:xlink="http://www.w3.org/1999/xlink" x="0px" y="0px"
	 viewBox="0 0 501.551 501.551" style="enable-background:new 0 0 501.551 501.551;" xml:space="preserve">
<path style="fill:#F2F2F2;" d="M0,0L0,0c0,40.751,28.212,75.233,65.829,84.637v361.535c0,30.302,25.078,55.38,55.38,55.38H356.31
	c30.302,0,55.38-25.078,55.38-55.38V0H0z"/>
<path style="fill:#E2E2E2;" d="M480.653,248.686L480.653,248.686c-11.494,0-20.898-9.404-20.898-20.898V83.592
	c0-8.359-6.269-14.629-14.629-14.629H411.69V27.167h33.437c31.347,0,56.425,25.078,56.425,56.424v143.151
	C501.551,239.282,492.147,248.686,480.653,248.686z"/>
<path style="fill:#84DBFF;" d="M76.278,135.837v310.335c0,25.078,19.853,44.931,44.931,44.931H356.31
	c25.078,0,44.931-19.853,44.931-44.931V135.837c0,0-37.616-56.424-163.004,0C134.792,181.812,76.278,135.837,76.278,135.837z"/>
<polygon style="fill:#FFFFFF;" points="358.4,140.016 358.4,156.735 331.233,156.735 331.233,163.004 358.4,163.004 358.4,203.755 
	339.592,203.755 339.592,210.025 358.4,210.025 358.4,250.776 331.233,250.776 331.233,257.045 358.4,257.045 358.4,297.796 
	339.592,297.796 339.592,304.065 358.4,304.065 358.4,344.816 331.233,344.816 331.233,351.086 358.4,351.086 358.4,391.837 
	339.592,391.837 339.592,398.106 358.4,398.106 358.4,438.857 331.233,438.857 331.233,445.127 358.4,445.127 358.4,461.845 
	364.669,461.845 364.669,140.016 "/>
<g>
</g>
<g>
</g>
<g>
</g>
<g>
</g>
<g>
</g>
<g>
</g>
<g>
</g>
<g>
</g>
<g>
</g>
<g>
</g>
<g>
</g>
<g>
</g>
<g>
</g>
<g>
</g>
<g>
</g>
</svg>
